<svg width="512" height="512" viewBox="0 0 512 512" fill="none" xmlns="http://www.w3.org/2000/svg">
  <!-- Background Circle -->
  <circle cx="256" cy="256" r="256" fill="url(#gradient1)"/>
  
  <!-- Gradient Definitions -->
  <defs>
    <linearGradient id="gradient1" x1="0%" y1="0%" x2="100%" y2="100%">
      <stop offset="0%" style="stop-color:#667eea"/>
      <stop offset="100%" style="stop-color:#764ba2"/>
    </linearGradient>
    
    <linearGradient id="gradient2" x1="0%" y1="0%" x2="100%" y2="100%">
      <stop offset="0%" style="stop-color:#fbbf24"/>
      <stop offset="100%" style="stop-color:#f59e0b"/>
    </linearGradient>
    
    <linearGradient id="gradient3" x1="0%" y1="0%" x2="100%" y2="100%">
      <stop offset="0%" style="stop-color:#3b82f6"/>
      <stop offset="100%" style="stop-color:#1d4ed8"/>
    </linearGradient>
    
    <filter id="glow">
      <feGaussianBlur stdDeviation="3" result="coloredBlur"/>
      <feMerge> 
        <feMergeNode in="coloredBlur"/>
        <feMergeNode in="SourceGraphic"/>
      </feMerge>
    </filter>
  </defs>
  
  <!-- Main S Letter -->
  <path d="M200 180 C160 180, 120 200, 120 240 C120 280, 160 300, 200 300 L280 300 C300 300, 320 320, 320 340 C320 360, 300 380, 280 380 L180 380" 
        stroke="white" stroke-width="24" stroke-linecap="round" fill="none" filter="url(#glow)"/>
  
  <!-- Chat Bubble Elements -->
  <circle cx="180" cy="140" r="8" fill="url(#gradient2)" opacity="0.8"/>
  <circle cx="220" cy="120" r="6" fill="url(#gradient2)" opacity="0.6"/>
  <circle cx="260" cy="110" r="4" fill="url(#gradient2)" opacity="0.4"/>
  
  <circle cx="340" cy="380" r="8" fill="url(#gradient3)" opacity="0.8"/>
  <circle cx="380" cy="360" r="6" fill="url(#gradient3)" opacity="0.6"/>
  <circle cx="400" cy="340" r="4" fill="url(#gradient3)" opacity="0.4"/>
  
  <!-- AI Neural Network Pattern -->
  <g opacity="0.3" stroke="white" stroke-width="1.5" fill="none">
    <line x1="80" y1="80" x2="120" y2="120"/>
    <line x1="120" y1="120" x2="160" y2="100"/>
    <line x1="160" y1="100" x2="200" y2="140"/>
    <circle cx="80" cy="80" r="3" fill="white"/>
    <circle cx="120" cy="120" r="3" fill="white"/>
    <circle cx="160" cy="100" r="3" fill="white"/>
    <circle cx="200" cy="140" r="3" fill="white"/>
    
    <line x1="350" y1="400" x2="390" y2="380"/>
    <line x1="390" y1="380" x2="420" y2="420"/>
    <line x1="420" y1="420" x2="450" y2="400"/>
    <circle cx="350" cy="400" r="3" fill="white"/>
    <circle cx="390" cy="380" r="3" fill="white"/>
    <circle cx="420" cy="420" r="3" fill="white"/>
    <circle cx="450" cy="400" r="3" fill="white"/>
  </g>
  
  <!-- Coding Symbols -->
  <text x="90" y="450" font-family="monospace" font-size="20" fill="white" opacity="0.7">{ }</text>
  <text x="430" y="90" font-family="monospace" font-size="20" fill="white" opacity="0.7">&lt;/&gt;</text>
  
  <!-- Highlight Shine Effect -->
  <ellipse cx="200" cy="150" rx="40" ry="80" fill="url(#shine)" opacity="0.3" transform="rotate(-30 200 150)"/>
  
  <defs>
    <linearGradient id="shine" x1="0%" y1="0%" x2="100%" y2="0%">
      <stop offset="0%" style="stop-color:transparent"/>
      <stop offset="50%" style="stop-color:white"/>
      <stop offset="100%" style="stop-color:transparent"/>
    </linearGradient>
  </defs>
</svg>